# xmcd
#
# Track frame offsets:
#	182
#	9907
#	21735
#	34150
#	45490
#	55497
#	65950
#	76392
#	89402
#	103642
#	114540
#	123130
#	134147
#	148685
#	159115
#	168895
#	180937
#
# Disc length: 2536 seconds
#
# Revision: 0
# Processed by: cddbd v1.5.1PL2 Copyright (c) Steve Scherf et al.
# Submitted via: EasyCDDAExtractor 9.0.0.1
#
DISCID=e409e611
DTITLE=Various Artist - Little Green Apples
DYEAR=1900
DGENRE=Country
TTITLE0=Hank Locklin - Send me the pillow you dream on
TTITLE1=Roger Miller - Little green apples
TTITLE2=Charlie Rich - My heart cries for you
TTITLE3=Patsy Cline - Walking after midnight
TTITLE4=Buck Owens - Rhythm and booze
TTITLE5=Conway Twitty - Born to sing the blues
TTITLE6=Dave Dudley - Seven lonely days
TTITLE7=Faron Young - Im a free man now
TTITLE8=Jimmy Dean - Release me
TTITLE9=Roger Miller - King of the road
TTITLE10=Sonny James - Bimbo
TTITLE11=Patsey Cline - There he goes
TTITLE12=Cowboy Copas - A satisfied mind
TTITLE13=Johnny Paycheck - A 11
TTITLE14=Jerry Lee Lewis - Movin on down the line
TTITLE15=Conway Twitty - Crazy dreams
TTITLE16=Jeannie C Riley - The girl most likely
EXTD=
EXTT0=
EXTT1=
EXTT2=
EXTT3=
EXTT4=
EXTT5=
EXTT6=
EXTT7=
EXTT8=
EXTT9=
EXTT10=
EXTT11=
EXTT12=
EXTT13=
EXTT14=
EXTT15=
EXTT16=
PLAYORDER=
